<svg width="101" height="62" viewBox="0 0 101 62" fill="none" xmlns="http://www.w3.org/2000/svg">
<path d="M84.611 19.4404C84.4549 16.0062 84.9232 12.9623 83.3622 10.3866C79.6158 3.9866 70.2499 0.240234 51.5181 0.240234V0.78658H51.1279H51.5181V0.240234C32.7863 0.240234 22.9521 3.9866 19.2057 10.4647C17.7228 13.1184 17.8789 16.0842 17.6447 19.5184C17.4887 22.2501 16.2399 25.138 16.7862 28.2599C17.4106 32.3185 17.6447 36.3771 18.2691 40.1234C18.7374 43.1674 22.9521 45.743 23.3423 48.6308C24.435 56.5918 32.7082 60.2601 51.4401 60.2601V60.8845H50.9718H51.5181V60.2601C70.2499 60.2601 78.2109 56.5918 79.2256 48.6308C79.6158 45.6649 83.5183 43.1674 83.9866 40.1234C84.611 36.3771 84.8451 32.3185 85.4695 28.2599C86.0158 25.138 84.7671 22.1721 84.611 19.4404Z" fill="#EFCCA3"/>
<path d="M51.2059 22.2502C54.5621 22.3283 56.9035 24.4356 59.0889 26.3869C61.6645 28.6503 66.0353 30.2113 67.8304 32.1625C69.6256 34.1137 71.967 36.065 72.8256 39.1089C73.6841 42.1528 73.9183 46.0553 73.9183 47.0699C73.9183 48.0846 74.4646 47.8504 76.0256 47.0699C79.6939 45.2748 83.7525 40.4357 83.7525 40.4357C83.2842 43.4797 79.3037 46.2114 78.9134 49.0992C77.9768 57.0602 70.25 60.8847 51.1279 60.8847H51.0498H51.5181" fill="#CCAC8D"/>
<path d="M63.5377 16.1622C64.2402 18.5817 66.7377 26.7769 61.8987 24.0452C61.8987 24.0452 63.928 25.2159 65.1767 29.6647C66.5036 34.1135 69.7036 34.6599 69.7036 34.6599C69.7036 34.6599 74.9329 35.6745 78.8354 32.3184C82.1134 29.5086 82.6598 24.5134 81.2549 20.689C79.85 16.9427 77.3524 15.7719 73.6841 14.9914C70.0158 14.1329 62.6792 13.4304 63.5377 16.1622Z" fill="#CCAC8D"/>
<path d="M72.8256 31.9284C76.6189 31.9284 79.6939 28.8533 79.6939 25.06C79.6939 21.2667 76.6189 18.1917 72.8256 18.1917C69.0323 18.1917 65.9573 21.2667 65.9573 25.06C65.9573 28.8533 69.0323 31.9284 72.8256 31.9284Z" fill="black"/>
<path d="M71.0305 23.8112C72.022 23.8112 72.8257 23.0075 72.8257 22.0161C72.8257 21.0246 72.022 20.2209 71.0305 20.2209C70.0391 20.2209 69.2353 21.0246 69.2353 22.0161C69.2353 23.0075 70.0391 23.8112 71.0305 23.8112Z" fill="white"/>
<path d="M62.367 24.7478C62.367 24.7478 68.5329 28.9625 71.889 33.0991C75.2451 37.2357 75.167 38.0162 75.167 38.0162L72.7475 39.1088C72.7475 39.1088 69.3134 32.6308 65.0987 30.2112C60.806 27.7917 60.3377 25.7624 60.3377 25.7624L62.367 24.7478Z" fill="#EFCCA3"/>
<path d="M51.4401 22.2502C48.084 22.3283 45.5864 24.4356 43.323 26.3869C40.7474 28.6503 36.2205 30.2113 34.4254 32.1625C32.6302 34.1137 30.2107 36.065 29.3521 39.1089C28.4936 42.1528 28.1814 46.0553 28.1814 47.0699C28.1814 48.0846 28.3375 48.1626 26.0741 47.0699C22.4058 45.3528 18.3472 40.4357 18.3472 40.4357C18.8155 43.4797 22.796 46.2114 23.1863 49.0992C24.2789 57.0602 32.0058 60.8847 51.1279 60.8847H51.5182" fill="#CCAC8D"/>
<path d="M69.5476 35.4406C65.8012 30.8357 59.7914 26.543 51.4401 26.543H51.3621C43.0108 26.543 37.001 30.8357 33.2546 35.4406C29.3521 40.2016 29.6643 42.0748 29.6643 46.6016C29.6643 62.9919 35.44 58.309 39.2644 60.3383C43.1669 62.2895 47.2254 61.6651 51.3621 61.6651H51.4401C55.6548 61.6651 59.6353 62.2114 63.5378 60.2602C67.3622 58.309 73.1378 63.148 73.1378 46.7577C73.2159 42.2309 73.45 40.2016 69.5476 35.4406Z" fill="#56332B"/>
<path d="M51.0499 30.6013C51.0499 30.6013 50.5035 38.1722 49.4108 39.6552L51.4401 39.1869L51.0499 30.6013Z" fill="#442823"/>
<path d="M51.5962 30.6013C51.5962 30.6013 52.1425 38.1722 53.2352 39.6552L51.2059 39.1869L51.5962 30.6013Z" fill="#442823"/>
<path d="M45.04 28.8062C44.2595 27.011 47.0693 24.1232 51.5181 24.0452C55.967 24.0452 58.7767 26.933 57.9963 28.8062C57.2158 30.6793 54.406 31.2257 51.5181 31.3037C48.7084 31.2257 45.8205 30.6793 45.04 28.8062Z" fill="#56332B"/>
<path d="M51.5181 30.6013C51.5181 30.2891 54.1717 30.2111 55.5766 29.2745C55.5766 29.2745 52.6888 30.2111 52.0644 29.8208C51.44 29.5086 51.2839 28.572 51.2839 28.572C51.2839 28.572 51.0498 29.5086 50.5815 29.8208C50.0352 30.133 46.7571 29.2745 46.7571 29.2745C46.7571 29.2745 51.1279 30.3672 51.1279 30.6013C51.1279 30.8355 51.0498 31.6159 51.0498 32.1623C51.0498 34.1135 51.0498 38.9526 51.362 39.3428C51.8303 40.0453 51.6742 34.1135 51.6742 32.1623C51.5961 31.5379 51.5961 30.9135 51.5181 30.6013Z" fill="black"/>
<path d="M51.6742 41.0599C53.001 41.0599 55.3425 41.9964 57.4498 43.4793C55.4205 41.216 53.001 39.655 51.6742 39.655C50.2693 39.655 47.3035 41.3721 45.1961 43.8696C47.3815 42.1525 50.1913 41.0599 51.6742 41.0599Z" fill="#7F4A41"/>
<path d="M51.1279 54.8748C48.162 54.8748 45.2742 53.9382 42.6205 53.2358C42.0742 53.0797 41.5278 53.4699 40.9815 53.3138C36.0644 51.7528 32.0839 49.0991 29.6643 45.743V46.5235C29.6643 62.9139 35.44 58.309 39.2644 60.2602C43.1669 62.2115 47.2254 61.5871 51.362 61.5871H51.4401C55.6548 61.5871 59.6353 62.1334 63.5377 60.1822C67.3621 58.2309 73.1378 62.992 73.1378 46.6015C73.1378 45.9771 73.1378 45.3527 73.2158 44.8064C70.9524 48.4747 66.8158 51.3626 61.6645 53.0797C61.1963 53.2358 60.1036 52.8455 59.6353 52.9236C56.8255 53.8602 54.3279 54.8748 51.1279 54.8748Z" fill="#442823"/>
<path d="M43.7132 46.0552C43.7132 46.0552 41.762 51.9089 43.0888 54.4846L41.2937 53.7041C41.2937 53.7041 42.6205 47.7723 43.7132 46.0552ZM59.167 46.0552C59.167 46.0552 61.1182 51.9089 59.7914 54.4846L61.5865 53.7041C61.5865 53.7041 60.1816 47.7723 59.167 46.0552Z" fill="#442823"/>
<path d="M38.718 16.1622C38.0156 18.5817 35.518 26.7769 40.3571 24.0452C40.3571 24.0452 38.3278 25.2159 37.079 29.6647C35.8302 34.1135 32.5521 34.6599 32.5521 34.6599C32.5521 34.6599 27.3228 35.6745 23.4204 32.3184C20.1423 29.5086 19.596 24.5134 21.0008 20.689C22.4057 16.8646 24.9033 15.7719 28.5716 14.9914C32.2399 14.1329 39.4985 13.4304 38.718 16.1622Z" fill="#CCAC8D"/>
<path d="M51.4401 39.6552C53.5474 39.6552 60.1035 44.182 60.1816 49.7235V49.4113C60.1816 43.6356 54.8742 39.0308 51.4401 39.0308C48.0059 39.0308 42.6986 43.7137 42.6986 49.4113V49.7235C42.7766 44.182 49.3328 39.6552 51.4401 39.6552Z" fill="black"/>
<path d="M53.144 28.8488C53.4779 28.7627 53.6176 28.1853 53.4561 27.5592C53.2946 26.9332 52.893 26.4954 52.5591 26.5816C52.2252 26.6677 52.0854 27.2451 52.2469 27.8712C52.4084 28.4973 52.81 28.935 53.144 28.8488Z" fill="#331712"/>
<path d="M49.1322 28.8371C49.4615 28.9392 49.8839 28.5215 50.0754 27.9039C50.267 27.2864 50.1553 26.7029 49.826 26.6008C49.4966 26.4986 49.0743 26.9164 48.8827 27.5339C48.6911 28.1515 48.8028 28.7349 49.1322 28.8371Z" fill="#331712"/>
<path d="M29.8204 31.9284C33.6137 31.9284 36.6888 28.8533 36.6888 25.06C36.6888 21.2667 33.6137 18.1917 29.8204 18.1917C26.0271 18.1917 22.9521 21.2667 22.9521 25.06C22.9521 28.8533 26.0271 31.9284 29.8204 31.9284Z" fill="black"/>
<path d="M31.6156 23.8112C32.607 23.8112 33.4107 23.0075 33.4107 22.0161C33.4107 21.0246 32.607 20.2209 31.6156 20.2209C30.6241 20.2209 29.8204 21.0246 29.8204 22.0161C29.8204 23.0075 30.6241 23.8112 31.6156 23.8112Z" fill="white"/>
<path d="M53.4693 25.1378C53.4693 25.0598 51.6742 25.9183 51.2059 25.9963C50.7376 25.9183 48.9425 25.0598 48.9425 25.1378H53.4693Z" fill="#7F4A41"/>
<path d="M39.8107 24.7478C39.8107 24.7478 33.6448 28.9625 30.2887 33.0991C26.9326 37.2357 27.0107 38.0162 27.0107 38.0162L29.4302 39.1088C29.4302 39.1088 32.8643 32.6308 37.079 30.2112C41.2936 27.7917 41.84 25.7624 41.84 25.7624L39.8107 24.7478Z" fill="#EFCCA3"/>
<path d="M26.3082 12.2598C26.3082 12.2598 24.2009 18.0355 19.5179 20.455C19.5179 20.455 26.8545 19.5964 26.3082 12.2598ZM75.5573 12.2598C75.5573 12.2598 77.6646 18.0355 82.3476 20.455C82.3476 20.455 75.011 19.5964 75.5573 12.2598ZM62.2109 23.0306C62.2109 23.0306 57.606 18.1915 51.4401 18.0354H51.5181H51.5962C45.3522 18.1915 40.8254 23.0306 40.8254 23.0306C46.2108 19.2842 50.8157 19.3623 51.5962 19.3623C51.5181 19.3623 56.8255 19.2842 62.2109 23.0306ZM56.8255 12.8842C56.8255 12.8842 54.484 9.60613 51.362 9.52808H51.5181C49.1766 9.60613 46.1327 12.8842 46.1327 12.8842C48.7864 10.3086 51.5181 10.3866 51.5181 10.3866C51.5181 10.3866 54.0938 10.3086 56.8255 12.8842ZM29.8204 36.8453C29.8204 36.8453 26.1521 38.6405 23.4984 37.5478H23.4204C21.0789 36.2209 19.9082 32.2404 19.9082 32.2404C19.9082 32.2404 22.2496 39.2649 29.8204 36.8453ZM72.5914 36.8453C72.5914 36.8453 76.2598 38.6405 78.9134 37.5478C82.0354 36.2209 82.5037 32.2404 82.5037 32.2404C82.5037 32.2404 80.1622 39.2649 72.5914 36.8453Z" fill="#CCAC8D"/>
<path d="M34.0351 11.8696C36.0644 11.4794 39.4205 11.4013 42.0742 12.2598C45.4303 13.4306 42.6986 17.7233 43.401 17.9574C44.1035 18.1916 45.0401 14.9916 51.284 15.3038C57.606 15.616 58.3084 18.4257 59.167 17.9574C60.0255 17.4891 58.3084 10.1525 67.7524 11.8696C67.7524 11.8696 57.8401 9.21592 58.3084 16.3965C58.3084 16.3965 52.6108 12.0257 44.6498 15.9282C44.7279 15.9282 46.7571 9.21592 34.0351 11.8696ZM68.611 11.8696C68.7671 11.8696 68.8451 11.9476 68.9232 11.9476C69.0012 11.9476 68.8451 11.8696 68.611 11.8696ZM31.3034 2.26953C31.3034 2.26953 22.8741 12.8842 21.6253 16.9428C20.3765 21.0794 19.4399 38.0161 18.3472 40.4356L14.4447 23.7331L21.6253 6.32809L31.3034 2.26953ZM70.9524 2.26953C70.9524 2.26953 79.3818 12.8842 80.6305 16.9428C81.8793 21.0794 82.8159 38.0161 83.9086 40.4356L87.8111 23.7331L80.6305 6.32809L70.9524 2.26953Z" fill="#CCAC8D"/>
<path d="M70.5622 2.26948C70.5622 2.26948 79.6159 9.84027 82.2696 18.5818C84.9233 27.3233 83.8306 37.938 85.8599 39.2649C88.7478 41.138 92.0258 29.977 93.1185 28.8062C94.8356 26.9331 100.533 22.1721 100.924 21.3135C101.314 20.455 89.3722 7.42074 84.1428 4.84511C77.8208 1.87924 70.0158 1.64509 70.5622 2.26948Z" fill="#56332B"/>
<path d="M78.2891 6.95239C78.2891 6.95239 88.9818 20.611 88.8257 37.6257L93.1184 28.8842C93.0404 28.8842 89.294 17.7232 78.2891 6.95239Z" fill="#442823"/>
<path d="M31.3034 2.26948C31.3034 2.26948 22.2497 9.84027 19.596 18.5818C16.9423 27.3233 18.035 37.938 16.0057 39.2649C13.1179 41.138 9.83982 29.977 8.74713 28.8062C7.03005 26.9331 1.33245 22.1721 0.9422 21.3135C0.551954 20.455 12.4935 7.42074 17.7228 4.84511C24.0448 1.87924 31.8497 1.64509 31.3034 2.26948Z" fill="#56332B"/>
<path d="M23.5765 6.95239C23.5765 6.95239 12.8837 20.611 13.0398 37.6257L8.82516 28.8842C8.82516 28.8842 12.5715 17.7232 23.5765 6.95239Z" fill="#442823"/>
<path d="M17.8008 37.9381C17.8008 37.9381 18.5813 42.1527 19.8301 43.4796C21.0789 44.8064 20.2204 42.4649 20.2204 42.4649C20.2204 42.4649 18.8935 41.7625 19.1277 36.3771C19.3618 30.9917 17.8008 37.9381 17.8008 37.9381ZM84.3769 37.9381C84.3769 37.9381 83.5964 42.1527 82.3476 43.4796C81.0988 44.8064 81.9574 42.4649 81.9574 42.4649C81.9574 42.4649 83.2842 41.7625 83.0501 36.3771C82.8159 30.9917 84.3769 37.9381 84.3769 37.9381Z" fill="#CCAC8D"/>
<path d="M43.323 35.3627C43.6678 35.3627 43.9473 35.0831 43.9473 34.7382C43.9473 34.3933 43.6678 34.1138 43.323 34.1138C42.9781 34.1138 42.6986 34.3933 42.6986 34.7382C42.6986 35.0831 42.9781 35.3627 43.323 35.3627Z" fill="#442823"/>
<path d="M39.7327 39.1089C40.0776 39.1089 40.3571 38.8293 40.3571 38.4845C40.3571 38.1397 40.0776 37.8601 39.7327 37.8601C39.3879 37.8601 39.1083 38.1397 39.1083 38.4845C39.1083 38.8293 39.3879 39.1089 39.7327 39.1089Z" fill="#442823"/>
<path d="M38.562 35.3627C38.9068 35.3627 39.1864 35.0831 39.1864 34.7382C39.1864 34.3933 38.9068 34.1138 38.562 34.1138C38.2171 34.1138 37.9376 34.3933 37.9376 34.7382C37.9376 35.0831 38.2171 35.3627 38.562 35.3627Z" fill="#442823"/>
<path d="M58.5426 35.3627C58.8875 35.3627 59.1671 35.0831 59.1671 34.7382C59.1671 34.3933 58.8875 34.1138 58.5426 34.1138C58.1978 34.1138 57.9182 34.3933 57.9182 34.7382C57.9182 35.0831 58.1978 35.3627 58.5426 35.3627Z" fill="#442823"/>
<path d="M62.1328 39.1089C62.4777 39.1089 62.7572 38.8293 62.7572 38.4845C62.7572 38.1397 62.4777 37.8601 62.1328 37.8601C61.788 37.8601 61.5085 38.1397 61.5085 38.4845C61.5085 38.8293 61.788 39.1089 62.1328 39.1089Z" fill="#442823"/>
<path d="M63.3036 35.3627C63.6484 35.3627 63.928 35.0831 63.928 34.7382C63.928 34.3933 63.6484 34.1138 63.3036 34.1138C62.9587 34.1138 62.6792 34.3933 62.6792 34.7382C62.6792 35.0831 62.9587 35.3627 63.3036 35.3627Z" fill="#442823"/>
</svg>
